<svg xmlns="http://www.w3.org/2000/svg" xmlns:xlink="http://www.w3.org/1999/xlink" version="1.1" id="Your_Icon" x="0px" y="0px" width="100px" height="100px" viewBox="0 0 100 100" enable-background="new 0 0 100 100" xml:space="preserve">
<g>
	<g>
		<g>
			<path fill="#000000" d="M50.149,8.365c0.201-0.124,0.35,0.15,0.486,0.258c1.871,2.051,3.246,4.499,4.42,7     c2.111,4.607,3.354,9.578,3.996,14.594c0.705,5.356,0.641,10.778,0.391,16.162c-0.234,4.905-0.732,9.795-1.498,14.647     c-0.012,0.217-0.141,0.471,0.045,0.65c1.293,1.695,2.623,3.361,3.902,5.066c-0.021,1.494-0.322,2.982-0.541,4.463     c-0.834,4.836-1.969,9.676-4.039,14.15c-0.041,0.006-0.123,0.018-0.166,0.023c-0.471-2.566-0.961-5.176-2.086-7.551     c-0.238-0.375-0.371-0.881-0.773-1.111c-0.197,0.762-0.453,1.512-0.764,2.234c-0.822,0.045-1.643-0.008-2.463,0.025     c-0.186,2.049-0.551,4.078-0.775,6.125c-0.053,0.15,0.045,0.412-0.158,0.469c-0.244-2.197-0.559-4.385-0.757-6.584     c-0.802-0.072-1.629,0.078-2.416-0.076c-0.273-0.715-0.462-1.459-0.698-2.186c-0.792,1.057-1.222,2.328-1.617,3.574     c-0.485,1.711-0.91,3.449-1.121,5.217c-0.197-0.119-0.29-0.332-0.375-0.535c-1.91-4.334-3.022-8.973-3.83-13.623     c-0.236-1.455-0.443-2.914-0.609-4.377c-0.031-0.168,0.082-0.299,0.172-0.424c1.251-1.604,2.493-3.213,3.735-4.822     c0.229-0.225,0.123-0.551,0.095-0.828c-0.617-3.748-1.079-7.52-1.394-11.304c-0.197-2.691-0.386-5.39-0.37-8.092     c-0.059-1.186-0.063-2.376-0.012-3.562c0.007-3.346,0.321-6.686,0.86-9.986c0.556-3.331,1.391-6.621,2.591-9.78     c1.126-2.931,2.534-5.777,4.434-8.289C49.234,9.365,49.64,8.814,50.149,8.365z M43.909,22.486     c-0.254,0.665-0.371,1.372-0.557,2.058c-1.138,4.895-1.626,9.93-1.597,14.95c0.006,0.193-0.024,0.447,0.19,0.541     c1.135,0.772,2.513,1.03,3.826,1.333c0.097-3.006,0.182-6.013,0.407-9.012c0.214-3.098,0.556-6.185,0.928-9.267     C46.036,22.919,44.967,22.729,43.909,22.486z M53.536,23.081l-0.051,0.098c0.787,5.99,1.23,12.027,1.309,18.068     c0.045,0.015,0.137,0.042,0.182,0.056c1.215-0.194,2.434-0.537,3.502-1.164c0.113-0.074,0.287-0.145,0.262-0.314     c0.033-2.227-0.051-4.454-0.236-6.673c-0.322-3.593-0.881-7.186-1.891-10.654C55.616,22.821,54.563,22.908,53.536,23.081z      M46.609,42.334c-0.095,5.599,0.133,11.197,0.508,16.781c2.115,0.244,4.269,0.246,6.38-0.031     c0.127-2.645,0.336-5.287,0.402-7.934c0.07-2.932,0.172-5.865,0.1-8.798c-0.338,0.018-0.676,0.03-1.012,0.075     C50.866,42.629,48.725,42.58,46.609,42.334z M54.255,59.836c-0.514,6.115-1.215,12.217-2.232,18.268     c0.297,0.004,0.594,0.004,0.891,0.004c0.438-1.078,0.746-2.199,1.092-3.309c1.514-5.125,2.59-10.375,3.342-15.664     C56.333,59.439,55.304,59.697,54.255,59.836z M43.321,59.238c0.119,1.035,0.331,2.061,0.495,3.09     c0.961,5.33,2.123,10.641,3.808,15.791c0.307-0.018,0.615-0.014,0.924-0.006c-0.094-0.867-0.278-1.723-0.372-2.59     c-0.828-5.189-1.406-10.418-1.812-15.656C45.332,59.754,44.323,59.498,43.321,59.238z"/>
		</g>
		<path fill="#000000" d="M20.922,58.848c1.367-1.312,3.252-2.078,5.149-2.051c1.953-0.035,3.904,0.768,5.274,2.16    c1.372,1.334,2.196,3.234,2.192,5.152c1.16,0.494,2.072,1.52,2.411,2.736c0.688-0.203,1.381-0.404,2.1-0.471    c-0.176,0.246-0.124,0.551-0.106,0.834c-0.855,0.15-1.731,0.352-2.469,0.832c-1.539,0.949-3.024,2.023-4.235,3.377    c-0.069,0.092-0.331,0.332-0.337,0.068c0.8-1.201,1.652-2.41,2.8-3.311c0.451-0.402,1.014-0.68,1.437-1.105    c-0.173-0.771-0.716-1.424-1.348-1.877c-0.313-0.23-0.697-0.322-1.033-0.508c-0.057-0.674-0.027-1.373-0.225-2.033    c-0.548-2.297-2.422-4.203-4.703-4.811c-2.331-0.678-4.976,0.113-6.612,1.891c-0.177,0.254-0.523,0.268-0.771,0.109    c-1.519-0.785-3.403-0.602-4.843,0.275l-0.089-0.045c-0.34-0.668-0.806-1.307-1.488-1.654c-0.883-0.496-1.997-0.543-2.916-0.117    c-0.969,0.43-1.682,1.367-1.868,2.406c-0.07,0.459-0.013,0.922-0.013,1.383c-0.11,0.131-0.297,0.141-0.444,0.211    c-1.573,0.564-2.798,1.998-3.097,3.645c-0.216,1.217,0.008,2.533,0.72,3.557c0.145,0.205,0.247,0.438,0.335,0.672    c-0.645,0.385-1.24,0.9-1.569,1.59c-0.466,0.902-0.486,2.021-0.06,2.943c0.524,1.207,1.792,2.041,3.108,2.049    c-0.024,0.826-0.169,1.658-0.019,2.484c0.382,2.77,2.818,5.092,5.606,5.328c0.585,0.086,1.174-0.035,1.757,0.027    c0.347,1.189,1.347,2.184,2.571,2.439c0.346,0.107,0.716,0.047,1.063,0.121c0.251,0.996,0.732,1.963,1.535,2.627    c1.128,0.969,2.756,1.326,4.178,0.871c0.414-0.1,0.776-0.436,1.225-0.326c0.565,0.652,1.331,1.15,2.197,1.273    c1.559,0.281,3.233-0.688,3.757-2.182c0.352-1.182,0.584-2.41,0.555-3.648c0.052,0,0.155-0.002,0.207-0.002    c0.184,1.062,0.268,2.164,0.042,3.229c-0.038,0.238-0.149,0.516,0.037,0.727c1.05,1.5,2.742,2.537,4.561,2.783    c0.64,0.098,1.29,0.07,1.934,0.016c-0.256,0.293-0.532,0.568-0.778,0.871c-2.354,0.088-4.684-1.016-6.159-2.844    c-0.523,0.658-1.146,1.27-1.941,1.584c-1.251,0.514-2.756,0.432-3.907-0.289c-0.298-0.17-0.538-0.416-0.815-0.609    c-1.194,0.436-2.526,0.607-3.755,0.201c-1.672-0.475-2.986-1.865-3.521-3.5c-1.537-0.109-2.953-1.117-3.565-2.529    c-1.375,0.066-2.783-0.176-3.985-0.869c-2.294-1.229-3.776-3.797-3.686-6.395c0.014-0.234,0.028-0.469-0.02-0.697    c-1.337-0.252-2.48-1.262-2.989-2.514c-0.308-0.709-0.345-1.5-0.272-2.258c0.134-1.086,0.743-2.086,1.597-2.758    c-0.454-0.877-0.831-1.822-0.837-2.826c-0.141-2.279,1.262-4.557,3.374-5.43c0.198-0.039,0.231-0.234,0.211-0.404    c-0.035-1.4,0.76-2.762,1.95-3.48c1.466-0.91,3.504-0.756,4.795,0.393c0.284,0.244,0.528,0.533,0.741,0.842    c0.65-0.201,1.295-0.453,1.985-0.477c0.91-0.078,1.825,0.088,2.673,0.418C20.672,59.047,20.819,58.961,20.922,58.848z"/>
		<path fill="#000000" d="M14.585,61.564c0.919-0.305,1.928,0.129,2.668,0.654c-0.027,0.035-0.08,0.107-0.107,0.145    c-0.659-0.252-1.395-0.486-2.093-0.225c-0.911,0.32-1.415,1.23-1.737,2.084c-0.052,0.002-0.156,0.006-0.207,0.01    C13.237,63.229,13.565,62.002,14.585,61.564z"/>
		<path fill="#000000" d="M25.221,61.631c0.798,0.141,1.608,0.441,2.197,1.016c0.406,0.412,0.504,1.018,0.439,1.574    c0.418,0.385,0.837,0.795,1.054,1.332c0.501,1.16,0.32,2.482-0.006,3.664l-0.098,0.059l-0.11-0.047    c0.188-1.145,0.06-2.369-0.575-3.361c-0.821-1.328-2.319-2.045-3.787-2.408c-0.019-0.055-0.057-0.164-0.074-0.219    c1.01-0.033,1.986,0.268,2.938,0.574c-0.139-0.826-0.859-1.4-1.565-1.762C25.463,61.941,25.159,61.9,25.221,61.631z"/>
		<path fill="#000000" d="M15.34,66.943c1.262-0.754,2.816-0.531,4.173-0.188c0.21,0.008,0.098,0.346-0.097,0.229    c-1.329-0.236-2.771,0.047-3.825,0.916c-1.161,0.916-1.725,2.355-2.081,3.748c-0.044,0.012-0.131,0.037-0.174,0.049    c-0.079-0.949,0.163-1.926,0.477-2.826c-0.701-0.023-1.362,0.418-1.722,1.002c-0.459,0.725-0.584,1.602-0.633,2.441    c-0.057-0.002-0.171-0.006-0.229-0.008c-0.067-1.162-0.24-2.498,0.521-3.484c0.551-0.689,1.513-0.645,2.298-0.525    C14.406,67.785,14.768,67.242,15.34,66.943z"/>
		<path fill="#000000" d="M36.619,71.326c0.578-0.295,1.332-0.275,1.852,0.131c0.18,0.232,0.152,0.561,0.208,0.84    c-0.348-0.252-0.745-0.453-1.181-0.477c-0.75-0.047-1.446,0.311-2.049,0.721c-0.112,0.102-0.252,0.121-0.37,0.016    C35.485,72.035,36.025,71.613,36.619,71.326z"/>
		<path fill="#000000" d="M18.494,74.611c0.728-0.277,1.526-0.518,2.311-0.361c0.457,0.084,0.837,0.396,1.101,0.768    c0.997-0.205,1.991,0.166,2.828,0.684c0.02,0.062,0.06,0.184,0.08,0.246c-0.796-0.268-1.667-0.539-2.494-0.225    c-1.068,0.395-1.662,1.467-2.008,2.488c-0.056,0.02-0.167,0.061-0.223,0.082c0.066-1.088,0.433-2.215,1.236-2.984    c-0.804-0.684-1.911-0.641-2.884-0.457C18.455,74.791,18.48,74.672,18.494,74.611z"/>
		<path fill="#000000" d="M26.009,79.912c-0.351-1.432,0.258-2.926,1.123-4.051c0.2,0.162,0.014,0.369-0.056,0.547    c-0.614,1.266-0.584,2.828,0.136,4.045c0.557,1.004,1.467,1.736,2.401,2.369c0.012,0.055,0.034,0.164,0.046,0.219    c-0.491-0.086-0.912-0.371-1.353-0.586C27.301,81.889,26.329,81.064,26.009,79.912z"/>
		<path fill="#000000" d="M15.609,79.584c-0.01-0.865,0.069-1.766,0.374-2.57l0.13,0.027c0.045,0.447-0.102,0.898-0.042,1.35    c0.05,1.041,0.461,2.094,1.27,2.775c1.048,0.902,2.486,1.166,3.829,1.191c0.001,0.066,0.004,0.197,0.004,0.264    c-1.38,0.123-2.882,0.264-4.148-0.422C16.086,81.691,15.625,80.613,15.609,79.584z"/>
		<path fill="#000000" d="M33.293,79.309l0.125-0.021l0.077,0.076c0.126,1.248,0.798,2.535,1.994,3.047    c1.116,0.514,2.383,0.299,3.533,0.025c0,0.053,0,0.162,0.001,0.215c-1.109,0.537-2.358,0.941-3.603,0.723    c-0.014,0.725,0.541,1.25,0.932,1.795c-0.019,0.25-0.29,0.039-0.385-0.033c-0.55-0.43-1.177-0.986-1.148-1.746    c0.051-0.391-0.429-0.496-0.608-0.773C33.476,81.699,33.269,80.451,33.293,79.309z"/>
		<path fill="#000000" d="M46.787,80.664c0.084-0.092,0.153-0.311,0.318-0.227c0.045,0.309-0.167,0.578-0.291,0.846    c-0.439,0.828-1.092,1.66-2.064,1.848c0.011-0.299,0.09-0.588,0.176-0.873C45.708,81.961,46.322,81.344,46.787,80.664z"/>
	</g>
	<g>
		<path fill="#000000" d="M68.483,59.895c1.4-1.43,3.404-2.244,5.404-2.207c1.711-0.008,3.41,0.611,4.734,1.691    c0.219,0.18,0.41,0.396,0.646,0.557c0.158,0.023,0.295-0.086,0.441-0.127c1.441-0.568,3.086-0.445,4.498,0.156    c0.561-0.852,1.438-1.496,2.428-1.748c1.199-0.281,2.535-0.076,3.521,0.688c1.146,0.824,1.734,2.26,1.672,3.65    c1.768,0.658,3.131,2.281,3.506,4.127c0.307,1.467,0.031,3.039-0.762,4.312c0.982,0.771,1.65,1.961,1.684,3.221    c0.082,1.264-0.422,2.557-1.365,3.408c-0.561,0.557-1.303,0.861-2.043,1.1c0.156,1.428-0.102,2.904-0.783,4.174    c-0.973,1.859-2.793,3.248-4.846,3.691c-0.693,0.168-1.41,0.162-2.119,0.154c-0.486,1.07-1.402,1.947-2.516,2.336    c-0.375,0.137-0.775,0.17-1.158,0.273c-0.352,1.229-1.209,2.289-2.285,2.965c-1.455,0.904-3.346,1.039-4.916,0.365    c-0.191-0.096-0.314,0.141-0.451,0.227c-1.543,1.346-4.055,1.332-5.592-0.016c-0.348-0.252-0.562-0.629-0.846-0.934    c-0.553,0.586-1.113,1.186-1.801,1.621c-2.012,1.35-4.67,1.652-6.938,0.812c-2.107-0.758-3.822-2.484-4.584-4.586    c-1.482,0.746-3.309,0.807-4.804,0.061c-0.48-0.203-0.865-0.559-1.293-0.844c-0.703-0.066-1.412-0.174-2.061-0.471    c-0.119-0.082-0.325-0.109-0.356,0.08c-1.055,2.771-3.888,4.727-6.85,4.762c0.246-0.303,0.522-0.578,0.778-0.871    c1.601-0.264,3.116-1.076,4.168-2.32c0.72-0.814,1.177-1.818,1.481-2.854c1.038,0.49,2.134,0.975,3.305,0.963    c1.197,1.207,3.098,1.623,4.69,1.023c0.498-0.154,0.9-0.533,1.424-0.617c0.328,1.139,0.854,2.234,1.672,3.105    c1.293,1.412,3.191,2.271,5.111,2.24c2.264,0.016,4.5-1.18,5.729-3.082c-0.012-0.439-0.17-0.861-0.189-1.301    c-0.049-0.863-0.018-1.738,0.166-2.584l0.133-0.057c-0.002,1.223,0.168,2.449,0.537,3.617c0.275,1.023,1.094,1.852,2.074,2.227    c1.225,0.494,2.719,0.199,3.67-0.717c0.207-0.182,0.396-0.49,0.719-0.402c0.389,0.131,0.754,0.338,1.158,0.428    c1.154,0.248,2.416,0.092,3.422-0.549c1.109-0.666,1.881-1.83,2.125-3.098c0.842-0.008,1.719-0.176,2.396-0.707    c0.648-0.471,1.086-1.166,1.355-1.908c1.281,0.088,2.613,0.012,3.783-0.568c1.656-0.76,2.953-2.25,3.475-3.994    c0.34-1.086,0.289-2.246,0.146-3.359c1.082-0.061,2.16-0.566,2.801-1.457c0.529-0.691,0.756-1.586,0.676-2.445    c-0.094-1.184-0.854-2.279-1.916-2.799c0.01-0.289,0.205-0.518,0.35-0.754c0.74-1.137,0.965-2.586,0.621-3.896    c-0.379-1.521-1.541-2.822-3.006-3.379c-0.166-0.092-0.402-0.078-0.516-0.242c-0.016-0.467,0.059-0.938-0.02-1.404    c-0.168-0.945-0.773-1.801-1.598-2.293c-1.064-0.629-2.488-0.602-3.52,0.09c-0.578,0.377-0.998,0.945-1.297,1.559l-0.082,0.031    c-0.904-0.506-1.928-0.846-2.975-0.787c-0.674,0.045-1.344,0.207-1.947,0.51c-0.242,0.15-0.596,0.152-0.766-0.104    c-1.473-1.617-3.77-2.426-5.93-2.084c-1.551,0.197-2.994,1.002-4.043,2.148c-1.242,1.342-1.869,3.199-1.75,5.018    c-0.859,0.193-1.621,0.754-2.078,1.504c-0.186,0.307-0.387,0.639-0.361,1.012c0.689,0.404,1.322,0.904,1.924,1.432    c0.875,0.764,1.514,1.746,2.199,2.674c0.08,0.111,0.137,0.236,0.164,0.373c-0.135-0.031-0.244-0.104-0.326-0.215    c-1.262-1.42-2.83-2.533-4.451-3.51c-0.475-0.301-1.018-0.467-1.557-0.602c0.002-0.26,0.055-0.514,0.1-0.768    c0.402,0.037,0.768,0.234,1.168,0.277c0.289-1.232,1.236-2.283,2.41-2.746C66.276,63.201,67.079,61.258,68.483,59.895z"/>
		<path fill="#000000" d="M83.282,62.918c0.682-0.352,1.512-0.676,2.27-0.354c0.643,0.266,0.988,0.926,1.199,1.553    c0.111,0.385,0.271,0.777,0.227,1.188c-0.264-0.123-0.271-0.451-0.404-0.678c-0.387-0.879-1.197-1.686-2.217-1.666    c-0.555-0.049-1.033,0.273-1.559,0.352C82.847,63.084,83.11,63.031,83.282,62.918z"/>
		<path fill="#000000" d="M73.835,62.848c0.297-0.094,0.592-0.244,0.91-0.195c-0.107,0.232-0.387,0.285-0.586,0.41    c-0.703,0.375-1.377,0.984-1.508,1.809c0.975-0.365,1.994-0.598,3.033-0.658c-0.014,0.053-0.047,0.16-0.062,0.215    c-1.391,0.336-2.793,0.969-3.67,2.146c-0.812,1.049-1.035,2.463-0.787,3.748c-0.049-0.021-0.146-0.064-0.195-0.086    c-0.262-0.98-0.438-2.029-0.193-3.031c0.154-0.789,0.652-1.473,1.291-1.945c-0.039-0.426-0.061-0.885,0.166-1.264    C72.565,63.395,73.218,63.076,73.835,62.848z"/>
		<path fill="#000000" d="M80.474,67.844c1.303-0.354,2.773-0.562,4.035,0.041c0.668,0.307,1.143,0.889,1.521,1.498    c0.611-0.027,1.277-0.184,1.848,0.131c0.686,0.359,0.98,1.15,1.051,1.879c0.088,0.639,0.039,1.281-0.02,1.92    c-0.039,0.041-0.115,0.121-0.152,0.162c-0.156-0.732-0.146-1.514-0.506-2.193c-0.336-0.783-1.119-1.369-1.984-1.379    c0.32,0.938,0.559,1.93,0.512,2.924l-0.133-0.059c-0.289-1.08-0.684-2.148-1.35-3.057c-0.631-0.752-1.463-1.35-2.416-1.605    c-0.801-0.229-1.654-0.207-2.469-0.064C80.427,67.99,80.458,67.891,80.474,67.844z"/>
		<path fill="#000000" d="M61.933,72.336c0.762-0.238,1.506,0.248,2.076,0.709c0.223,0.225,0.559,0.393,0.621,0.729    c-0.418-0.1-0.719-0.445-1.123-0.586c-0.514-0.262-1.096-0.279-1.654-0.24C61.886,72.744,61.919,72.539,61.933,72.336z"/>
		<path fill="#000000" d="M78.126,76.213c0.318-0.557,0.957-0.865,1.59-0.828c0.631,0.023,1.27,0.18,1.838,0.445    c0.018,0.045,0.057,0.139,0.076,0.184c-1.01-0.189-2.178-0.252-2.998,0.48c0.816,0.777,1.215,1.918,1.252,3.023l-0.135-0.064    c-0.34-0.857-0.75-1.76-1.549-2.287c-0.676-0.475-1.572-0.535-2.344-0.281c-0.271,0.08-0.523,0.227-0.811,0.238    c0.119-0.309,0.5-0.369,0.758-0.527C76.519,76.23,77.329,76.086,78.126,76.213z"/>
		<path fill="#000000" d="M72.661,77.064c0.227,0.047,0.305,0.291,0.422,0.461c0.615,1.047,1.121,2.283,0.828,3.512    c-0.273,1.178-1.225,2.049-2.238,2.629c-0.475,0.254-0.945,0.547-1.475,0.668c0.008-0.137,0.072-0.234,0.189-0.295    c1.021-0.656,1.963-1.518,2.486-2.633c0.531-1.096,0.529-2.414,0.088-3.539C72.864,77.596,72.694,77.354,72.661,77.064z"/>
		<path fill="#000000" d="M83.97,78.215c0.229,0.078,0.209,0.359,0.27,0.551c0.268,1.238,0.414,2.633-0.248,3.777    c-0.555,0.951-1.689,1.336-2.73,1.434c-0.799,0.045-1.611,0.057-2.396-0.113l-0.045-0.146c1.266-0.09,2.59-0.279,3.646-1.037    c0.934-0.645,1.467-1.75,1.543-2.865C84.118,79.279,83.946,78.75,83.97,78.215z"/>
		<path fill="#000000" d="M66.323,80.568c0.047-0.01,0.139-0.033,0.186-0.043c-0.027,1.379-0.26,3.021-1.51,3.846    c-0.02,0.562-0.189,1.129-0.605,1.527c-0.303,0.27-0.58,0.643-0.996,0.717c0.055-0.246,0.26-0.402,0.408-0.588    c0.318-0.387,0.541-0.857,0.582-1.361c-1.273,0.229-2.535-0.197-3.682-0.711c0-0.053-0.004-0.158-0.004-0.211    c1.123,0.309,2.361,0.49,3.469,0.029C65.474,83.287,66.214,81.898,66.323,80.568z"/>
		<path fill="#000000" d="M52.44,81.697c0.051,0.023,0.152,0.068,0.203,0.092c0.562,0.811,1.285,1.623,2.291,1.855    c0.359,0.111,0.734,0.02,1.102,0.076c0.041,0.484,0.189,0.951,0.24,1.436c-0.203-0.244-0.344-0.527-0.508-0.797    c-0.559,0.074-1.17,0.109-1.652-0.236C53.288,83.559,52.724,82.643,52.44,81.697z"/>
	</g>
</g>
</svg>